<svg width="761" height="119" viewBox="0 0 761 119" fill="none" xmlns="http://www.w3.org/2000/svg">
<path d="M95.2438 95.2438C91.6665 98.821 84.6435 100.06 74.5017 96.8112C64.6374 93.6515 53.2171 86.5874 42.8148 76.1852C32.4126 65.7829 25.3485 54.3626 22.1888 44.4983C18.9403 34.3565 20.179 27.3335 23.7562 23.7562C27.3335 20.179 34.3565 18.9403 44.4983 22.1888C54.3626 25.3485 65.7829 32.4126 76.1852 42.8148C86.5874 53.2171 93.6515 64.6374 96.8112 74.5017C100.06 84.6435 98.821 91.6665 95.2438 95.2438Z" stroke="#9800D9" stroke-width="10"/>
<path d="M24.7562 95.2438C28.3335 98.821 35.3565 100.06 45.4983 96.8112C55.3626 93.6515 66.7829 86.5874 77.1852 76.1852C87.5874 65.7829 94.6515 54.3626 97.8112 44.4983C101.06 34.3565 99.821 27.3335 96.2438 23.7562C92.6665 20.179 85.6435 18.9403 75.5017 22.1888C65.6374 25.3485 54.2171 32.4126 43.8148 42.8148C33.4126 53.2171 26.3485 64.6374 23.1888 74.5017C19.9403 84.6435 21.179 91.6665 24.7562 95.2438Z" stroke="#9800D9" stroke-width="10"/>
<path d="M158.6 94C157.933 94 157.367 93.7667 156.9 93.3C156.433 92.8333 156.2 92.2667 156.2 91.6V36.3H137.7C137.033 36.3 136.467 36.0667 136 35.6C135.533 35.1333 135.3 34.5667 135.3 33.9V26.5C135.3 25.7667 135.533 25.1667 136 24.7C136.467 24.2333 137.033 24 137.7 24H188.7C189.433 24 190.033 24.2333 190.5 24.7C190.967 25.1667 191.2 25.7667 191.2 26.5V33.9C191.2 34.5667 190.967 35.1333 190.5 35.6C190.033 36.0667 189.433 36.3 188.7 36.3H170.3V91.6C170.3 92.2667 170.067 92.8333 169.6 93.3C169.133 93.7667 168.533 94 167.8 94H158.6ZM203.747 94C203.08 94 202.514 93.7667 202.047 93.3C201.58 92.8333 201.347 92.2667 201.347 91.6V26.5C201.347 25.7667 201.58 25.1667 202.047 24.7C202.514 24.2333 203.08 24 203.747 24H229.647C237.714 24 244.08 25.8667 248.747 29.6C253.414 33.3333 255.747 38.7667 255.747 45.9C255.747 50.8333 254.514 54.9333 252.047 58.2C249.647 61.4667 246.414 63.8333 242.347 65.3L256.947 90.8C257.147 91.2 257.247 91.5667 257.247 91.9C257.247 92.5 257.014 93 256.547 93.4C256.147 93.8 255.68 94 255.147 94H246.047C244.914 94 244.047 93.7 243.447 93.1C242.847 92.5 242.38 91.9 242.047 91.3L229.147 67.6H215.247V91.6C215.247 92.2667 215.014 92.8333 214.547 93.3C214.147 93.7667 213.58 94 212.847 94H203.747ZM215.247 56.3H229.347C233.414 56.3 236.447 55.4 238.447 53.6C240.447 51.7333 241.447 49.1333 241.447 45.8C241.447 42.4667 240.447 39.8667 238.447 38C236.514 36.0667 233.48 35.1 229.347 35.1H215.247V56.3ZM264.332 94C263.799 94 263.299 93.8 262.832 93.4C262.432 93 262.232 92.5 262.232 91.9C262.232 91.6333 262.299 91.3333 262.432 91L286.532 26.5C286.732 25.8333 287.099 25.2667 287.632 24.8C288.232 24.2667 289.032 24 290.032 24H300.932C301.932 24 302.699 24.2667 303.232 24.8C303.765 25.2667 304.165 25.8333 304.432 26.5L328.532 91C328.599 91.3333 328.632 91.6333 328.632 91.9C328.632 92.5 328.432 93 328.032 93.4C327.632 93.8 327.165 94 326.632 94H317.932C316.999 94 316.299 93.8 315.832 93.4C315.432 92.9333 315.165 92.5 315.032 92.1L310.332 79.9H280.632L275.932 92.1C275.799 92.5 275.499 92.9333 275.032 93.4C274.632 93.8 273.965 94 273.032 94H264.332ZM284.132 68.4H306.832L295.432 37.5L284.132 68.4ZM340.368 94C339.701 94 339.135 93.7667 338.668 93.3C338.201 92.8333 337.968 92.2667 337.968 91.6V26.5C337.968 25.7667 338.201 25.1667 338.668 24.7C339.135 24.2333 339.701 24 340.368 24H364.768C371.501 24 377.035 25.0333 381.368 27.1C385.768 29.1667 389.068 32.2333 391.268 36.3C393.535 40.3667 394.701 45.3333 394.768 51.2C394.901 54.1333 394.968 56.7333 394.968 59C394.968 61.2667 394.901 63.8333 394.768 66.7C394.635 72.9 393.501 78.0333 391.368 82.1C389.235 86.1 386.001 89.1 381.668 91.1C377.401 93.0333 371.935 94 365.268 94H340.368ZM351.868 82.5H364.768C368.501 82.5 371.535 81.9667 373.868 80.9C376.201 79.8333 377.901 78.1333 378.968 75.8C380.101 73.4 380.701 70.2667 380.768 66.4C380.835 64.4 380.868 62.6667 380.868 61.2C380.935 59.6667 380.935 58.1667 380.868 56.7C380.868 55.1667 380.835 53.4333 380.768 51.5C380.635 46.0333 379.268 42 376.668 39.4C374.068 36.8 369.935 35.5 364.268 35.5H351.868V82.5ZM410.681 94C410.014 94 409.447 93.7667 408.981 93.3C408.514 92.8333 408.281 92.2667 408.281 91.6V26.5C408.281 25.7667 408.514 25.1667 408.981 24.7C409.447 24.2333 410.014 24 410.681 24H454.681C455.414 24 456.014 24.2333 456.481 24.7C456.947 25.1667 457.181 25.7667 457.181 26.5V33.1C457.181 33.7667 456.947 34.3333 456.481 34.8C456.014 35.2667 455.414 35.5 454.681 35.5H421.781V53.2H452.481C453.214 53.2 453.814 53.4333 454.281 53.9C454.747 54.3 454.981 54.8667 454.981 55.6V61.8C454.981 62.5333 454.747 63.1333 454.281 63.6C453.814 64 453.214 64.2 452.481 64.2H421.781V82.5H455.481C456.214 82.5 456.814 82.7333 457.281 83.2C457.747 83.6667 457.981 84.2667 457.981 85V91.6C457.981 92.2667 457.747 92.8333 457.281 93.3C456.814 93.7667 456.214 94 455.481 94H410.681ZM472.888 94C472.221 94 471.654 93.7667 471.188 93.3C470.721 92.8333 470.488 92.2667 470.488 91.6V26.4C470.488 25.7333 470.721 25.1667 471.188 24.7C471.654 24.2333 472.221 24 472.888 24H482.188C482.854 24 483.421 24.2333 483.888 24.7C484.354 25.1667 484.588 25.7333 484.588 26.4V82.1H516.288C517.021 82.1 517.621 82.3333 518.088 82.8C518.554 83.2667 518.788 83.8667 518.788 84.6V91.6C518.788 92.2667 518.554 92.8333 518.088 93.3C517.621 93.7667 517.021 94 516.288 94H472.888ZM530.895 94C530.229 94 529.662 93.7667 529.195 93.3C528.729 92.8333 528.495 92.2667 528.495 91.6V26.4C528.495 25.7333 528.729 25.1667 529.195 24.7C529.662 24.2333 530.229 24 530.895 24H540.295C541.029 24 541.595 24.2333 541.995 24.7C542.462 25.1667 542.695 25.7333 542.695 26.4V91.6C542.695 92.2667 542.462 92.8333 541.995 93.3C541.595 93.7667 541.029 94 540.295 94H530.895ZM560.778 94C560.112 94 559.545 93.7667 559.078 93.3C558.612 92.8333 558.378 92.2667 558.378 91.6V26.5C558.378 25.7667 558.612 25.1667 559.078 24.7C559.545 24.2333 560.112 24 560.778 24H568.478C569.412 24 570.078 24.2333 570.478 24.7C570.945 25.1 571.245 25.4 571.378 25.6L600.178 70.4V26.5C600.178 25.7667 600.378 25.1667 600.778 24.7C601.245 24.2333 601.845 24 602.578 24H610.978C611.712 24 612.312 24.2333 612.778 24.7C613.245 25.1667 613.478 25.7667 613.478 26.5V91.5C613.478 92.2333 613.245 92.8333 612.778 93.3C612.312 93.7667 611.745 94 611.078 94H603.278C602.345 94 601.678 93.7667 601.278 93.3C600.878 92.8333 600.578 92.5333 600.378 92.4L571.678 48.6V91.6C571.678 92.2667 571.445 92.8333 570.978 93.3C570.512 93.7667 569.912 94 569.178 94H560.778ZM656.281 95C650.148 95 644.915 93.9333 640.581 91.8C636.315 89.6667 632.981 86.6 630.581 82.6C628.248 78.5333 626.981 73.7 626.781 68.1C626.715 65.2333 626.681 62.1667 626.681 58.9C626.681 55.5667 626.715 52.4333 626.781 49.5C626.981 43.9667 628.248 39.2333 630.581 35.3C632.981 31.3667 636.348 28.3333 640.681 26.2C645.081 24.0667 650.281 23 656.281 23C661.148 23 665.415 23.6667 669.081 25C672.748 26.2667 675.781 27.9333 678.181 30C680.648 32 682.481 34.1667 683.681 36.5C684.948 38.8333 685.615 41 685.681 43C685.748 43.6 685.581 44.1 685.181 44.5C684.781 44.9 684.248 45.1 683.581 45.1H673.281C672.615 45.1 672.115 44.9667 671.781 44.7C671.448 44.4333 671.148 44.0333 670.881 43.5C670.348 42.1 669.515 40.7333 668.381 39.4C667.248 38 665.715 36.8333 663.781 35.9C661.848 34.9667 659.348 34.5 656.281 34.5C651.748 34.5 648.115 35.7 645.381 38.1C642.715 40.5 641.281 44.4667 641.081 50C640.881 55.8 640.881 61.6667 641.081 67.6C641.281 73.2667 642.748 77.3333 645.481 79.8C648.281 82.2667 651.948 83.5 656.481 83.5C659.481 83.5 662.148 82.9667 664.481 81.9C666.881 80.8333 668.748 79.1667 670.081 76.9C671.481 74.6333 672.181 71.7333 672.181 68.2V65.1H659.981C659.315 65.1 658.748 64.8667 658.281 64.4C657.815 63.9333 657.581 63.3333 657.581 62.6V57.3C657.581 56.5667 657.815 55.9667 658.281 55.5C658.748 55.0333 659.315 54.8 659.981 54.8H683.881C684.615 54.8 685.181 55.0333 685.581 55.5C686.048 55.9667 686.281 56.5667 686.281 57.3V67.8C686.281 73.4 685.048 78.2333 682.581 82.3C680.181 86.3667 676.715 89.5 672.181 91.7C667.715 93.9 662.415 95 656.281 95ZM726.001 95C720.068 95 714.968 94.0333 710.701 92.1C706.434 90.1 703.101 87.0667 700.701 83C698.301 78.8667 697.001 73.7333 696.801 67.6C696.734 64.7333 696.701 61.9 696.701 59.1C696.701 56.3 696.734 53.4333 696.801 50.5C697.001 44.4333 698.334 39.3667 700.801 35.3C703.268 31.2333 706.634 28.1667 710.901 26.1C715.234 24.0333 720.268 23 726.001 23C731.734 23 736.768 24.0333 741.101 26.1C745.434 28.1667 748.834 31.2333 751.301 35.3C753.768 39.3667 755.101 44.4333 755.301 50.5C755.434 53.4333 755.501 56.3 755.501 59.1C755.501 61.9 755.434 64.7333 755.301 67.6C755.101 73.7333 753.801 78.8667 751.401 83C749.001 87.0667 745.634 90.1 741.301 92.1C737.034 94.0333 731.934 95 726.001 95ZM726.001 83.5C730.334 83.5 733.868 82.2333 736.601 79.7C739.334 77.1 740.801 72.9 741.001 67.1C741.134 64.1667 741.201 61.4667 741.201 59C741.201 56.4667 741.134 53.7667 741.001 50.9C740.868 47.0333 740.134 43.9 738.801 41.5C737.534 39.0333 735.801 37.2667 733.601 36.2C731.401 35.0667 728.868 34.5 726.001 34.5C723.201 34.5 720.701 35.0667 718.501 36.2C716.301 37.2667 714.534 39.0333 713.201 41.5C711.934 43.9 711.234 47.0333 711.101 50.9C711.034 53.7667 711.001 56.4667 711.001 59C711.001 61.4667 711.034 64.1667 711.101 67.1C711.301 72.9 712.768 77.1 715.501 79.7C718.234 82.2333 721.734 83.5 726.001 83.5Z" fill="black"/>
</svg>
