<svg width="210" height="210" viewBox="0 0 210 210" fill="none" xmlns="http://www.w3.org/2000/svg">
<path d="M158.015 69.5605C151.381 90.3478 129.151 101.821 108.364 95.1871C87.5767 88.553 76.1033 66.3236 82.7374 45.5363C89.3715 24.749 111.601 13.2756 132.388 19.9097C153.175 26.5438 164.649 48.7732 158.015 69.5605Z" fill="#9FEB00"/>
<path d="M98.3537 94.0661C91.7196 114.853 69.4902 126.327 48.7029 119.693C27.9156 113.059 16.4422 90.8291 23.0763 70.0419C29.7104 49.2546 51.9398 37.7812 72.7271 44.4153C93.5144 51.0494 104.988 73.2788 98.3537 94.0661Z" fill="#9FEB00"/>
<path d="M145.402 109.081C138.768 129.868 116.539 141.342 95.7513 134.708C74.964 128.074 63.4906 105.844 70.1247 85.057C76.7588 64.2697 98.9882 52.7963 119.776 59.4304C140.563 66.0645 152.036 88.2939 145.402 109.081Z" fill="#9FEB00"/>
<path d="M192.451 124.096C185.816 144.884 163.587 156.357 142.8 149.723C122.012 143.089 110.539 120.859 117.173 100.072C123.807 79.2848 146.037 67.8114 166.824 74.4455C187.611 81.0796 199.085 103.309 192.451 124.096Z" fill="#9FEB00"/>
<path d="M98.5143 155.289C91.8802 176.076 69.6508 187.55 48.8635 180.916C28.0762 174.281 16.6028 152.052 23.2369 131.265C29.871 110.477 52.1004 99.004 72.8877 105.638C93.675 112.272 105.148 134.502 98.5143 155.289Z" fill="#9FEB00"/>
<path d="M156.854 173.908C150.22 194.695 127.991 206.168 107.203 199.534C86.4162 192.9 74.9428 170.671 81.5769 149.883C88.211 129.096 110.44 117.623 131.228 124.257C152.015 130.891 163.488 153.12 156.854 173.908Z" fill="#9FEB00"/>
</svg>
