<svg width="120" height="119" viewBox="0 0 120 119" fill="none" xmlns="http://www.w3.org/2000/svg">
<path d="M95.2438 95.2438C91.6665 98.821 84.6435 100.06 74.5017 96.8112C64.6374 93.6515 53.2171 86.5874 42.8148 76.1852C32.4126 65.7829 25.3485 54.3626 22.1888 44.4983C18.9403 34.3565 20.179 27.3335 23.7562 23.7562C27.3335 20.179 34.3565 18.9403 44.4983 22.1888C54.3626 25.3485 65.7829 32.4126 76.1852 42.8148C86.5874 53.2171 93.6515 64.6374 96.8112 74.5017C100.06 84.6435 98.821 91.6665 95.2438 95.2438Z" stroke="#F1F1F1" stroke-width="7.5"/>
<path d="M24.7562 95.2438C28.3335 98.821 35.3565 100.06 45.4983 96.8112C55.3626 93.6515 66.7829 86.5874 77.1852 76.1852C87.5874 65.7829 94.6515 54.3626 97.8112 44.4983C101.06 34.3565 99.821 27.3335 96.2438 23.7562C92.6665 20.179 85.6435 18.9403 75.5017 22.1888C65.6374 25.3485 54.2171 32.4126 43.8148 42.8148C33.4126 53.2171 26.3485 64.6374 23.1888 74.5017C19.9403 84.6435 21.179 91.6665 24.7562 95.2438Z" stroke="#F1F1F1" stroke-width="7.5"/>
</svg>
