<svg width="282" height="282" viewBox="0 0 282 282" fill="none" xmlns="http://www.w3.org/2000/svg">
<path d="M81.5654 28.1718C81.812 17.7728 94.2696 12.5913 101.818 19.748L132.366 48.7098C137.005 53.1081 144.278 53.0974 148.904 48.6856L179.367 19.6342C186.895 12.4554 199.367 17.6003 199.645 27.9985L200.766 70.0785C200.937 76.4688 206.087 81.6038 212.477 81.7554L254.561 82.7536C264.96 83.0002 270.141 95.4578 262.984 103.006L234.022 133.555C229.624 138.194 229.635 145.466 234.047 150.092L263.098 180.555C270.277 188.083 265.132 200.556 254.734 200.833L212.654 201.954C206.263 202.125 201.129 207.275 200.977 213.666L199.979 255.749C199.732 266.148 187.275 271.329 179.726 264.173L149.178 235.211C144.539 230.812 137.266 230.823 132.64 235.235L102.177 264.286C94.6493 271.465 82.1766 266.32 81.8995 255.922L80.7778 213.842C80.6075 207.452 75.4574 202.317 69.0666 202.165L26.9836 201.167C16.5846 200.92 11.4031 188.463 18.5598 180.914L47.5216 150.366C51.9199 145.727 51.9092 138.454 47.4974 133.828L18.446 103.365C11.2672 95.8375 16.4122 83.3648 26.8104 83.0877L68.8903 81.966C75.2806 81.7957 80.4156 76.6456 80.5672 70.2548L81.5654 28.1718Z" fill="#FF4F04"/>
</svg>
