<svg width="332" height="212" viewBox="0 0 332 212" fill="none" xmlns="http://www.w3.org/2000/svg">
<path fill-rule="evenodd" clip-rule="evenodd" d="M150.855 2.28268C142.66 -1.84247 132.736 -0.170515 126.346 6.41193L93.2296 40.5215C90.8722 42.9497 87.9628 44.7721 84.7493 45.8336L39.6075 60.7451C30.896 63.6227 25.0609 71.8222 25.1965 80.9957L25.8991 128.531C25.9491 131.915 25.1805 135.261 23.6588 138.284L2.2827 180.748C-1.84244 188.943 -0.170486 198.867 6.41196 205.258L40.5215 238.374C42.9497 240.731 44.7721 243.64 45.8336 246.854L60.7451 291.996C63.6227 300.707 71.8223 306.542 80.9957 306.407L128.531 305.704C131.915 305.654 135.261 306.423 138.284 307.944L180.748 329.32C188.943 333.446 198.867 331.774 205.258 325.191L238.374 291.082C240.731 288.653 243.64 286.831 246.854 285.769L291.996 270.858C300.707 267.98 306.542 259.781 306.407 250.607L305.704 203.072C305.654 199.688 306.423 196.342 307.944 193.319L329.32 150.855C333.446 142.66 331.774 132.736 325.191 126.346L291.082 93.2295C288.653 90.8721 286.831 87.9628 285.77 84.7493L270.858 39.6074C267.98 30.896 259.781 25.0609 250.607 25.1965L203.072 25.899C199.688 25.949 196.342 25.1805 193.319 23.6588L150.855 2.28268ZM153.46 72.9517C151.119 71.7731 148.284 72.2508 146.458 74.1315L123.983 97.2806C123.309 97.9744 122.478 98.4951 121.56 98.7984L90.9236 108.918C88.4346 109.74 86.7674 112.083 86.8062 114.704L87.283 146.965C87.2973 147.932 87.0777 148.888 86.6429 149.752L72.1356 178.571C70.957 180.912 71.4347 183.747 73.3154 185.573L96.4645 208.048C97.1583 208.722 97.679 209.553 97.9823 210.471L108.102 241.108C108.924 243.597 111.267 245.264 113.888 245.225L146.149 244.748C147.116 244.734 148.072 244.953 148.936 245.388L177.755 259.896C180.096 261.074 182.931 260.596 184.757 258.716L207.232 235.567C207.906 234.873 208.737 234.352 209.655 234.049L240.291 223.929C242.78 223.107 244.448 220.764 244.409 218.143L243.932 185.882C243.918 184.915 244.137 183.959 244.572 183.096L259.079 154.277C260.258 151.935 259.78 149.1 257.9 147.274L234.75 124.799C234.057 124.125 233.536 123.294 233.233 122.376L223.113 91.7397C222.291 89.2507 219.948 87.5836 217.327 87.6223L185.066 88.0991C184.099 88.1134 183.143 87.8938 182.279 87.459L153.46 72.9517Z" fill="#FF7925"/>
</svg>
