<svg width="336" height="336" viewBox="0 0 336 336" fill="none" xmlns="http://www.w3.org/2000/svg">
<path fill-rule="evenodd" clip-rule="evenodd" d="M122.199 54.0715C119.771 50.3913 114.047 52.7721 114.944 57.0891L123.737 99.3669C124.468 102.883 120.554 105.507 117.579 103.494L81.8129 79.2972C78.1608 76.8265 73.7836 81.2166 76.265 84.8613L100.567 120.556C102.588 123.525 99.9762 127.447 96.4577 126.726L54.1542 118.058C49.8347 117.173 47.4706 122.904 51.158 125.321L87.27 148.999C90.2735 150.969 89.361 155.592 85.8345 156.272L43.434 164.452C39.1046 165.288 39.1137 171.487 43.4455 172.31L85.8699 180.366C89.3984 181.036 90.3244 185.656 87.3267 187.634L51.2843 211.418C47.6041 213.847 49.9849 219.571 54.3018 218.673L96.5797 209.881C100.096 209.149 102.72 213.063 100.707 216.038L76.51 251.804C74.0392 255.456 78.4293 259.834 82.0741 257.352L117.769 233.05C120.738 231.029 124.66 233.641 123.939 237.159L115.271 279.463C114.385 283.783 120.117 286.147 122.534 282.459L146.212 246.347C148.181 243.344 152.804 244.256 153.485 247.783L161.665 290.183C162.501 294.513 168.7 294.504 169.523 290.172L177.579 247.747C178.249 244.219 182.869 243.293 184.847 246.29L208.631 282.333C211.059 286.013 216.783 283.632 215.886 279.315L207.093 237.038C206.362 233.521 210.276 230.898 213.251 232.91L249.017 257.107C252.669 259.578 257.046 255.188 254.565 251.543L230.263 215.848C228.242 212.879 230.854 208.957 234.372 209.678L276.676 218.347C280.995 219.232 283.359 213.501 279.672 211.083L243.56 187.405C240.556 185.436 241.469 180.813 244.995 180.132L287.396 171.952C291.725 171.117 291.716 164.917 287.384 164.095L244.96 156.039C241.432 155.369 240.506 150.748 243.503 148.77L279.546 124.986C283.226 122.558 280.845 116.834 276.528 117.732L234.25 126.524C230.734 127.255 228.11 123.341 230.123 120.366L254.32 84.6001C256.791 80.9481 252.401 76.5708 248.756 79.0523L213.061 103.354C210.092 105.376 206.17 102.763 206.891 99.245L215.559 56.9415C216.444 52.6219 210.713 50.2579 208.296 53.9452L184.618 90.0573C182.649 93.0608 178.026 92.1483 177.345 88.6218L169.165 46.2213C168.329 41.8918 162.13 41.9009 161.307 46.2328L153.251 88.6571C152.581 92.1856 147.961 93.1117 145.983 90.114L122.199 54.0715ZM137.657 162.698C134.533 165.823 134.533 170.888 137.657 174.012L161.698 198.054C164.823 201.178 169.888 201.178 173.012 198.054L197.054 174.012C200.178 170.888 200.178 165.823 197.054 162.698L173.012 138.657C169.888 135.533 164.823 135.533 161.698 138.657L137.657 162.698Z" fill="#FF258E"/>
</svg>
