<svg width="333" height="333" viewBox="0 0 333 333" fill="none" xmlns="http://www.w3.org/2000/svg">
<rect x="69.1702" y="18.8909" width="250" height="250" rx="40" transform="rotate(11.6022 69.1702 18.8909)" fill="#E0C7FF"/>
<path fill-rule="evenodd" clip-rule="evenodd" d="M229.873 263.157C206.274 278.716 174.53 272.199 158.971 248.601L151.286 236.945L139.876 244.468C116.277 260.027 84.5334 253.51 68.9744 229.911C53.4153 206.313 59.9326 174.569 83.5312 159.01L94.942 151.487L87.2604 139.836C71.7014 116.237 78.2187 84.4939 101.817 68.9348C125.416 53.3757 157.159 59.8931 172.718 83.4916L180.4 95.1423L192.296 87.299C215.894 71.7399 247.638 78.2572 263.197 101.856C278.756 125.454 272.239 157.198 248.64 172.757L236.744 180.6L244.429 192.256C259.988 215.855 253.471 247.598 229.873 263.157Z" fill="#8424FF"/>
</svg>
